<?xml version="1.0" encoding="UTF-8" standalone="no"?>
<!-- Created with Inkscape (http://www.inkscape.org/) -->

<svg
   xmlns:dc="http://purl.org/dc/elements/1.1/"
   xmlns:cc="http://creativecommons.org/ns#"
   xmlns:rdf="http://www.w3.org/1999/02/22-rdf-syntax-ns#"
   xmlns:svg="http://www.w3.org/2000/svg"
   xmlns="http://www.w3.org/2000/svg"
   xmlns:sodipodi="http://sodipodi.sourceforge.net/DTD/sodipodi-0.dtd"
   xmlns:inkscape="http://www.inkscape.org/namespaces/inkscape"
   version="1.1"
   id="svg815"
   width="420mm"
   height="297mm"
   viewBox="0 0 1587.4016 1122.5197"
   sodipodi:docname="3. Donald - Fill Black.svg"
   inkscape:version="0.92.4 (5da689c313, 2019-01-14)">
  <metadata
     id="metadata821">
    <rdf:RDF>
      <cc:Work
         rdf:about="">
        <dc:format>image/svg+xml</dc:format>
        <dc:type
           rdf:resource="http://purl.org/dc/dcmitype/StillImage" />
        <dc:title />
      </cc:Work>
    </rdf:RDF>
  </metadata>
  <defs
     id="defs819" />
  <sodipodi:namedview
     pagecolor="#ffffff"
     bordercolor="#666666"
     borderopacity="1"
     objecttolerance="10"
     gridtolerance="10"
     guidetolerance="10"
     inkscape:pageopacity="0"
     inkscape:pageshadow="2"
     inkscape:window-width="1600"
     inkscape:window-height="877"
     id="namedview817"
     showgrid="false"
     units="mm"
     inkscape:zoom="0.87084874"
     inkscape:cx="587.80514"
     inkscape:cy="693.00412"
     inkscape:window-x="-8"
     inkscape:window-y="-8"
     inkscape:window-maximized="1"
     inkscape:current-layer="g5161" />
  <g
     inkscape:groupmode="layer"
     id="layer2"
     inkscape:label="0. Fake"
     sodipodi:insensitive="true"
     style="display:inline">
    <rect
       style="opacity:1;fill:none;fill-opacity:1;fill-rule:evenodd;stroke:none;stroke-width:5;stroke-miterlimit:4;stroke-dasharray:none;stroke-opacity:1"
       id="rect4303"
       width="1552.5084"
       height="1095.483"
       x="25.262711"
       y="17.850235" />
  </g>
  <g
     style="display:inline;opacity:1"
     inkscape:label="3. Fill Black"
     id="g5161"
     inkscape:groupmode="layer"
     sodipodi:insensitive="true">
    <path
       style="color:#000000;font-style:normal;font-variant:normal;font-weight:normal;font-stretch:normal;font-size:medium;line-height:normal;font-family:sans-serif;font-variant-ligatures:normal;font-variant-position:normal;font-variant-caps:normal;font-variant-numeric:normal;font-variant-alternates:normal;font-feature-settings:normal;text-indent:0;text-align:start;text-decoration:none;text-decoration-line:none;text-decoration-style:solid;text-decoration-color:#000000;letter-spacing:normal;word-spacing:normal;text-transform:none;writing-mode:lr-tb;direction:ltr;text-orientation:mixed;dominant-baseline:auto;baseline-shift:baseline;text-anchor:start;white-space:normal;shape-padding:0;clip-rule:nonzero;display:inline;overflow:visible;visibility:visible;opacity:1;isolation:auto;mix-blend-mode:normal;color-interpolation:sRGB;color-interpolation-filters:linearRGB;solid-color:#000000;solid-opacity:1;vector-effect:none;fill:#000000;fill-opacity:1;fill-rule:nonzero;stroke:none;stroke-width:5;stroke-linecap:butt;stroke-linejoin:miter;stroke-miterlimit:4;stroke-dasharray:none;stroke-dashoffset:0;stroke-opacity:1;color-rendering:auto;image-rendering:auto;shape-rendering:auto;text-rendering:auto;enable-background:accumulate"
       d="m 1152.5547,281.60352 2.6816,-6.88672 c -0.1133,-0.17443 -0.2057,-0.3264 -0.3222,-0.50391 -2.3907,-3.64143 -5.5,-7.89186 -7.7246,-9.93164 -11.2078,-10.27608 -27.0098,-20.0404 -39.1407,-23.25195 -12.4765,-3.30307 -21.4368,-3.09484 -31.2246,0.5039 -4.0521,1.48986 -8.0342,4.44988 -9.8301,7.97461 -1.3731,2.69503 -1.9347,8.94811 -1.8339,14.24805 0.068,3.60946 0.2972,6.21425 0.4668,7.89062 5.1394,0.006 10.1249,1.70176 14.8476,4.26954 1.6415,0.89249 3.2556,1.89691 4.8418,2.97656 0.9821,-0.30111 2.4483,-0.76339 4.4805,-1.48828 3.0831,-1.09979 6.7616,-2.62683 8.6543,-3.86524 3.5636,-2.33172 6.6565,-5.69085 8.998,-9.39453 0.8545,-1.35155 2.0055,-4.24899 2.8164,-6.67383 0.811,-2.42483 1.3496,-4.41601 1.3496,-4.41601 l 1.959,-7.25196 2.7774,6.98047 c 0,0 0.9716,2.43876 1.8789,5.50586 0.9072,3.0671 1.8521,6.66608 1.5332,9.875 -0.2181,2.1939 -0.9885,4.49919 -1.9492,6.72461 0.2217,-0.009 0.4198,-0.0212 0.6503,-0.0273 2.6027,-0.0693 5.6204,-0.0786 8.1914,0.85547 4.0566,1.47361 8.2986,4.66151 12.0469,7.8457 0.1213,-0.13932 0.2279,-0.27188 0.3594,-0.41406 1.1733,-1.26819 2.666,-2.88105 5.2227,-3.12696 2.9731,-0.28597 5.7468,0.39758 8.2695,1.58204 z"
       id="path5151"
       inkscape:connector-curvature="0" />
    <path
       style="color:#000000;font-style:normal;font-variant:normal;font-weight:normal;font-stretch:normal;font-size:medium;line-height:normal;font-family:sans-serif;font-variant-ligatures:normal;font-variant-position:normal;font-variant-caps:normal;font-variant-numeric:normal;font-variant-alternates:normal;font-feature-settings:normal;text-indent:0;text-align:start;text-decoration:none;text-decoration-line:none;text-decoration-style:solid;text-decoration-color:#000000;letter-spacing:normal;word-spacing:normal;text-transform:none;writing-mode:lr-tb;direction:ltr;text-orientation:mixed;dominant-baseline:auto;baseline-shift:baseline;text-anchor:start;white-space:normal;shape-padding:0;clip-rule:nonzero;display:inline;overflow:visible;visibility:visible;opacity:1;isolation:auto;mix-blend-mode:normal;color-interpolation:sRGB;color-interpolation-filters:linearRGB;solid-color:#000000;solid-opacity:1;vector-effect:none;fill:#000000;fill-opacity:1;fill-rule:nonzero;stroke:none;stroke-width:5;stroke-linecap:butt;stroke-linejoin:miter;stroke-miterlimit:4;stroke-dasharray:none;stroke-dashoffset:0;stroke-opacity:1;color-rendering:auto;image-rendering:auto;shape-rendering:auto;text-rendering:auto;enable-background:accumulate"
       d="m 1177.832,389.14062 c 1.5794,0.33562 3.09,0.58896 4.4903,0.66407 0.08,-1.48593 0.1452,-3.1931 0.061,-4.12891 -0.3675,-4.05963 -1.0888,-8.07397 -2.4824,-11.71484 -1.4767,-3.85787 -3.0897,-7.38265 -5.6738,-9.82227 -0.436,-0.41161 -1.1201,-0.95869 -1.6954,-1.28515 -0.32,-0.18156 -0.5707,-0.24087 -0.6874,-0.27344 0.01,-0.0122 0.043,-0.0811 -0.096,0.17578 -0.1945,0.36007 -0.4225,1.07942 -0.6425,1.89062 -0.1,0.36921 -0.1648,2.38434 -0.035,3.99024 0.1296,1.6059 0.332,2.94531 0.332,2.94531 l -0.012,0.002 c 2.7241,7.6108 4.8533,13.92576 6.4414,17.55664 z"
       id="path5153"
       inkscape:connector-curvature="0" />
    <path
       style="color:#000000;font-style:normal;font-variant:normal;font-weight:normal;font-stretch:normal;font-size:medium;line-height:normal;font-family:sans-serif;font-variant-ligatures:normal;font-variant-position:normal;font-variant-caps:normal;font-variant-numeric:normal;font-variant-alternates:normal;font-feature-settings:normal;text-indent:0;text-align:start;text-decoration:none;text-decoration-line:none;text-decoration-style:solid;text-decoration-color:#000000;letter-spacing:normal;word-spacing:normal;text-transform:none;writing-mode:lr-tb;direction:ltr;text-orientation:mixed;dominant-baseline:auto;baseline-shift:baseline;text-anchor:start;white-space:normal;shape-padding:0;clip-rule:nonzero;display:inline;overflow:visible;visibility:visible;opacity:1;isolation:auto;mix-blend-mode:normal;color-interpolation:sRGB;color-interpolation-filters:linearRGB;solid-color:#000000;solid-opacity:1;vector-effect:none;fill:#000000;fill-opacity:1;fill-rule:nonzero;stroke:none;stroke-width:5;stroke-linecap:butt;stroke-linejoin:miter;stroke-miterlimit:4;stroke-dasharray:none;stroke-dashoffset:0;stroke-opacity:1;color-rendering:auto;image-rendering:auto;shape-rendering:auto;text-rendering:auto;enable-background:accumulate"
       d="m 1107.3223,437.32617 c 0.049,-2.76605 0.06,-7.10704 -0.3282,-9.32422 -1.1183,-6.39301 -3.2125,-12.70256 -6.1582,-18.47851 -2.8975,-5.68156 -6.1078,-11.26428 -10.6132,-14.92774 -2.2266,-1.81051 -4.9143,-3.21667 -7.2383,-3.29687 -1.1013,-0.038 -2.3702,0.43421 -2.7656,0.85351 -1.1607,1.44839 -1.2402,4.13662 -1.0997,7.70118 0.314,2.51454 2.5137,11.25586 2.5137,11.25586 l -0.098,0.0254 c 2.5601,5.61001 4.4296,9.46484 4.4296,9.46484 l -0.029,0.0156 c 1.159,1.31563 2.2714,2.6562 3.3672,3.9668 4.2364,5.06647 8.2473,9.64651 13.3926,11.49609 1.4682,0.52779 3.0306,0.95074 4.627,1.24805 z"
       id="path5157"
       inkscape:connector-curvature="0" />
    <path
       style="color:#000000;font-style:normal;font-variant:normal;font-weight:normal;font-stretch:normal;font-size:medium;line-height:normal;font-family:sans-serif;font-variant-ligatures:normal;font-variant-position:normal;font-variant-caps:normal;font-variant-numeric:normal;font-variant-alternates:normal;font-feature-settings:normal;text-indent:0;text-align:start;text-decoration:none;text-decoration-line:none;text-decoration-style:solid;text-decoration-color:#000000;letter-spacing:normal;word-spacing:normal;text-transform:none;writing-mode:lr-tb;direction:ltr;text-orientation:mixed;dominant-baseline:auto;baseline-shift:baseline;text-anchor:start;white-space:normal;shape-padding:0;clip-rule:nonzero;display:inline;overflow:visible;visibility:visible;opacity:1;isolation:auto;mix-blend-mode:normal;color-interpolation:sRGB;color-interpolation-filters:linearRGB;solid-color:#000000;solid-opacity:1;vector-effect:none;fill:#000000;fill-opacity:1;fill-rule:nonzero;stroke:none;stroke-width:5;stroke-linecap:butt;stroke-linejoin:miter;stroke-miterlimit:4;stroke-dasharray:none;stroke-dashoffset:0;stroke-opacity:1;color-rendering:auto;image-rendering:auto;shape-rendering:auto;text-rendering:auto;enable-background:accumulate"
       d="m 1198.1328,299.24805 c 4.3639,3.82969 14.117,12.73572 19.4004,20.32617 3.6292,5.21378 7.3079,13.84209 10.2344,21.32617 0.6332,1.61941 0.5419,1.52334 1.084,2.97852 0.1309,-2.05908 0.3505,-4.32853 0.3125,-5.79688 -0.1197,-4.6208 -1.3067,-14.18164 -1.3067,-14.18164 l -0.582,-4.60937 4.166,2.05273 c 0,0 8.2526,3.96021 12.5977,7.47656 2.9031,2.34946 6.3223,6.08331 9.0566,9.26172 -0.023,-1.00638 0.028,-0.92844 -0.023,-2.07031 -0.2209,-4.98114 -0.8682,-10.95432 -2.043,-14.14453 -3.9038,-10.60107 -10.4859,-20.861 -19.2695,-27.58789 -3.2022,-2.45238 -9.6919,-4.87463 -15.2305,-6.46485 -3.4082,-0.97854 -5.9939,-1.57586 -7.8398,-1.97656 -2.4042,5.66082 -5.8272,10.0469 -10.5567,13.41016 z"
       id="path5159"
       inkscape:connector-curvature="0" />
  </g>
  <g
     inkscape:groupmode="layer"
     id="layer5"
     inkscape:label="3. Stroke Black"
     style="display:inline;opacity:0"
     sodipodi:insensitive="true">
    <path
       style="display:inline;opacity:1;fill:#000000;fill-opacity:1;fill-rule:evenodd;stroke:none;stroke-width:8;stroke-linecap:round;stroke-miterlimit:4;stroke-dasharray:none;stroke-opacity:1"
       d="m 1117.4443,246.36294 17.6552,10.76536"
       id="path5194"
       inkscape:connector-curvature="0" />
    <path
       style="display:inline;opacity:1;vector-effect:none;fill:none;fill-opacity:1;stroke:#000000;stroke-width:8;stroke-linecap:round;stroke-linejoin:miter;stroke-miterlimit:4;stroke-dasharray:none;stroke-dashoffset:0;stroke-opacity:1"
       d="m 1080.6986,396.93445 c 0,0 0.4782,3.19198 1.0048,6.0286 0.661,3.56064 1.4664,7.14018 2.8707,10.47828 1.397,3.32059 5.4545,9.32998 5.4545,9.32998 0,0 5.56,7.80399 9.617,10.04767 1.4534,0.8038 3.5929,2.05412 4.8803,1.00476 1.8914,-1.54169 0.4273,-4.918 0,-7.32044 -0.8748,-4.91809 -3.1226,-9.50914 -5.1674,-14.06674 -1.5772,-3.51542 -3.0486,-7.18155 -5.4544,-10.1912 -2.6474,-3.31193 -1.7481,-3.15585 -5.311,-5.45446 -1.1513,-0.74276 -5.885,-2.15306 -5.885,-2.15306"
       id="path6531"
       inkscape:connector-curvature="0"
       sodipodi:nodetypes="csscssssssc" />
    <path
       style="display:inline;opacity:1;vector-effect:none;fill:none;fill-opacity:1;stroke:#000000;stroke-width:8;stroke-linecap:round;stroke-linejoin:miter;stroke-miterlimit:4;stroke-dasharray:none;stroke-dashoffset:0;stroke-opacity:1"
       d="m 1084.1435,398.22629 16.3633,33.01377 1.579,-1.29185 -15.5022,-31.29131"
       id="path6533"
       inkscape:connector-curvature="0" />
    <path
       style="display:inline;opacity:1;vector-effect:none;fill:none;fill-opacity:1;stroke:#000000;stroke-width:6;stroke-linecap:butt;stroke-linejoin:miter;stroke-miterlimit:4;stroke-dasharray:none;stroke-dashoffset:0;stroke-opacity:1"
       d="m 1172.8501,362.77236 c 0,0 -0.2597,5.83126 0.1435,7.75107 1.4178,6.75119 1.7017,20.87548 8.3252,18.94704 3.0211,-0.87962 -0.4596,-6.33854 -1.4354,-9.32999 -1.387,-4.252 -5.3109,-13.77966 -5.3109,-13.77966"
       id="path6535"
       inkscape:connector-curvature="0"
       sodipodi:nodetypes="csssc" />
    <path
       style="display:inline;opacity:1;vector-effect:none;fill:none;fill-opacity:1;stroke:#000000;stroke-width:8;stroke-linecap:butt;stroke-linejoin:miter;stroke-miterlimit:4;stroke-dasharray:none;stroke-dashoffset:0;stroke-opacity:1"
       d="m 1109.2627,244.64048 c 0,0 -10.6387,-3.125 -16.0763,-2.87076 -6.447,0.30144 -13.5974,1.16425 -18.66,5.16737 -3.4266,2.70949 -7.1442,6.34585 -8.0381,10.62182 -0.6489,3.10376 -1.3739,6.63937 1.1483,10.33475 2.5222,3.69538 11.1762,7.32135 16.9375,7.75105 4.3154,0.32186 8.7195,-1.65543 12.3443,-4.01906 4.0872,-2.66513 7.5876,-6.54011 9.7606,-10.9089 1.9975,-4.01596 2.5837,-13.20551 2.5837,-13.20551"
       id="path6537"
       inkscape:connector-curvature="0"
       sodipodi:nodetypes="cssszsssc" />
    <path
       style="display:inline;opacity:1;vector-effect:none;fill:none;fill-opacity:1;stroke:#000000;stroke-width:8;stroke-linecap:round;stroke-linejoin:miter;stroke-miterlimit:4;stroke-dasharray:none;stroke-dashoffset:0;stroke-opacity:1"
       d="m 1074.2394,249.52077 -2.5837,20.38242 7.1769,2.00953 3.4449,-25.83686 6.8898,-0.86123 -3.4449,26.98517 8.0381,-4.01907 3.1579,-23.25318 7.7511,0.57416 -4.3062,18.65996"
       id="path6539"
       inkscape:connector-curvature="0"
       sodipodi:nodetypes="cccccccccc" />
    <path
       style="display:inline;opacity:1;vector-effect:none;fill:none;fill-opacity:1;stroke:#000000;stroke-width:8;stroke-linecap:round;stroke-linejoin:miter;stroke-miterlimit:4;stroke-dasharray:none;stroke-dashoffset:0;stroke-opacity:1"
       d="m 1109.2627,244.64048 c 0,0 18.5283,8.46867 22.9661,10.90889 8.5389,4.69528 10.4268,7.29627 14.9279,11.77013 4.5011,4.47386 5.026,4.23242 5.1674,7.17691 0.064,1.32786 -0.8383,2.81595 -2.0095,3.44491 -2.9555,1.58716 -6.9612,-1.88842 -10.0477,-0.57415 -0.8117,0.34563 -2.5671,3.06927 -3.4449,3.15785 -4.3421,0.43818 -4.3505,-8.24631 -8.6123,-9.18645 -2.4934,-0.55005 -5.7965,3.65614 -7.464,1.72246 -1.88,-2.18007 3.0988,-5.16001 3.1579,-8.03814 0.1352,-6.58071 -9.9042,-18.65995 -9.9042,-18.65995"
       id="path6541"
       inkscape:connector-curvature="0"
       sodipodi:nodetypes="cszsssssssc" />
    <path
       style="display:inline;opacity:1;vector-effect:none;fill:none;fill-opacity:1;stroke:#000000;stroke-width:8;stroke-linecap:round;stroke-linejoin:miter;stroke-miterlimit:4;stroke-dasharray:none;stroke-dashoffset:0;stroke-opacity:1"
       d="m 1125.0519,259.56844 14.0667,7.75106 7.1769,7.75106 -6.0286,-0.28707 -13.7797,-8.89937"
       id="path6543"
       inkscape:connector-curvature="0" />
    <path
       style="display:inline;opacity:1;vector-effect:none;fill:none;fill-opacity:1;stroke:#000000;stroke-width:8;stroke-linecap:round;stroke-linejoin:miter;stroke-miterlimit:4;stroke-dasharray:none;stroke-dashoffset:0;stroke-opacity:1"
       d="m 1211.4617,286.84068 c 0,0 -2.0428,5.43379 -3.7319,7.75107 -1.5549,2.13321 -5.835,2.81633 -5.7415,5.45445 0.1493,4.21216 6.764,5.0742 9.7606,8.03813 3.3799,3.34301 8.555,7.35286 10.9089,11.48305 4.1659,7.3095 6.6028,23.25319 6.6028,23.25319 0,0 -13.7588,-22.20273 -4.3758,-27.03444 4.5314,-2.33341 7.1613,2.28901 11.5527,5.21663 4.6166,3.07775 14.0667,11.77013 14.0667,11.77013 0,0 -0.288,-5.28491 -1.1483,-7.75106 -2.3299,-6.67939 -6.4134,-12.68676 -10.6218,-18.37288 -3.4237,-4.6259 -6.9505,-9.4863 -11.7702,-12.63135 -3.6496,-2.38152 -12.3442,-4.30615 -12.3442,-4.30615"
       id="path6545"
       inkscape:connector-curvature="0"
       sodipodi:nodetypes="csssscsscsssc" />
    <path
       style="display:inline;opacity:1;vector-effect:none;fill:none;fill-opacity:1;stroke:#000000;stroke-width:8;stroke-linecap:round;stroke-linejoin:miter;stroke-miterlimit:4;stroke-dasharray:none;stroke-dashoffset:0;stroke-opacity:1"
       d="m 1210.0447,293.29095 c 0,0 11.0367,4.61613 15.6305,8.32273 7.1742,5.78858 17.8634,21.11133 17.8634,21.11133 0,0 -6.2341,-3.4087 -8.9317,-5.68382 -4.4675,-3.76782 -7.0587,-9.53832 -11.7736,-12.99158 -4.3236,-3.16665 -14.6156,-6.69879 -14.6156,-6.69879 l -1.8269,1.42095 c 0,0 7.374,3.86037 10.5557,6.4958 3.1723,2.62763 8.3227,9.13471 8.3227,9.13471"
       id="path6549"
       inkscape:connector-curvature="0"
       sodipodi:nodetypes="cscssccsc" />
  </g>
</svg>
