<?xml version="1.0" encoding="UTF-8" standalone="no"?>
<!-- Created with Inkscape (http://www.inkscape.org/) -->

<svg
   xmlns:dc="http://purl.org/dc/elements/1.1/"
   xmlns:cc="http://creativecommons.org/ns#"
   xmlns:rdf="http://www.w3.org/1999/02/22-rdf-syntax-ns#"
   xmlns:svg="http://www.w3.org/2000/svg"
   xmlns="http://www.w3.org/2000/svg"
   xmlns:sodipodi="http://sodipodi.sourceforge.net/DTD/sodipodi-0.dtd"
   xmlns:inkscape="http://www.inkscape.org/namespaces/inkscape"
   version="1.1"
   id="svg815"
   width="420mm"
   height="297mm"
   viewBox="0 0 1587.4016 1122.5197"
   sodipodi:docname="6. Donald - Fill Red.svg"
   inkscape:version="0.92.4 (5da689c313, 2019-01-14)">
  <metadata
     id="metadata821">
    <rdf:RDF>
      <cc:Work
         rdf:about="">
        <dc:format>image/svg+xml</dc:format>
        <dc:type
           rdf:resource="http://purl.org/dc/dcmitype/StillImage" />
        <dc:title />
      </cc:Work>
    </rdf:RDF>
  </metadata>
  <defs
     id="defs819" />
  <sodipodi:namedview
     pagecolor="#ffffff"
     bordercolor="#666666"
     borderopacity="1"
     objecttolerance="10"
     gridtolerance="10"
     guidetolerance="10"
     inkscape:pageopacity="0"
     inkscape:pageshadow="2"
     inkscape:window-width="1600"
     inkscape:window-height="877"
     id="namedview817"
     showgrid="false"
     units="mm"
     inkscape:zoom="0.21771219"
     inkscape:cx="2291.3431"
     inkscape:cy="616.15363"
     inkscape:window-x="-8"
     inkscape:window-y="-8"
     inkscape:window-maximized="1"
     inkscape:current-layer="layer8" />
  <g
     inkscape:groupmode="layer"
     id="layer2"
     inkscape:label="0. Fake"
     sodipodi:insensitive="true"
     style="display:inline">
    <rect
       style="opacity:1;fill:none;fill-opacity:1;fill-rule:evenodd;stroke:none;stroke-width:5;stroke-miterlimit:4;stroke-dasharray:none;stroke-opacity:1"
       id="rect4303"
       width="1552.5084"
       height="1095.483"
       x="25.262711"
       y="17.850235" />
  </g>
  <g
     inkscape:groupmode="layer"
     id="g5031"
     inkscape:label="6. Fill Red"
     style="display:inline"
     sodipodi:insensitive="true">
    <path
       inkscape:connector-curvature="0"
       id="path5015"
       d="m 1053.209,557.51562 c -4.684,-0.95422 -9.8077,-1.50597 -14.9317,-1.38085 -0.4264,0.17977 -1.8016,0.76603 -3.666,1.69531 -2.1797,1.08649 -4.736,2.60209 -5.7324,3.54687 -0.8562,0.81185 -2.4097,3.64213 -3.416,6.11328 -0.089,0.21772 -0.1574,0.4099 -0.2402,0.6211 6.1822,-0.8789 12.1631,-2.00513 17.6347,-4.25781 2.7963,-1.15123 8.0624,-4.73926 10.3516,-6.3379 z"
       style="color:#000000;font-style:normal;font-variant:normal;font-weight:normal;font-stretch:normal;font-size:medium;line-height:normal;font-family:sans-serif;font-variant-ligatures:normal;font-variant-position:normal;font-variant-caps:normal;font-variant-numeric:normal;font-variant-alternates:normal;font-feature-settings:normal;text-indent:0;text-align:start;text-decoration:none;text-decoration-line:none;text-decoration-style:solid;text-decoration-color:#000000;letter-spacing:normal;word-spacing:normal;text-transform:none;writing-mode:lr-tb;direction:ltr;text-orientation:mixed;dominant-baseline:auto;baseline-shift:baseline;text-anchor:start;white-space:normal;shape-padding:0;clip-rule:nonzero;display:inline;overflow:visible;visibility:visible;opacity:1;isolation:auto;mix-blend-mode:normal;color-interpolation:sRGB;color-interpolation-filters:linearRGB;solid-color:#000000;solid-opacity:1;vector-effect:none;fill:#ffffff;fill-opacity:1;fill-rule:nonzero;stroke:none;stroke-width:5;stroke-linecap:butt;stroke-linejoin:miter;stroke-miterlimit:4;stroke-dasharray:none;stroke-dashoffset:0;stroke-opacity:1;color-rendering:auto;image-rendering:auto;shape-rendering:auto;text-rendering:auto;enable-background:accumulate" />
    <path
       inkscape:connector-curvature="0"
       id="path5021"
       d="m 1177.0332,637.51367 c 1.4799,-0.0426 3.1946,-0.15616 4.3867,-0.46484 3.5433,-0.91745 4.9956,-2.36402 6.9004,-5.78516 3.4265,-6.15397 3.7292,-14.18352 2.5977,-21.66211 -1.2345,-8.15889 -4.3771,-15.86414 -9.9551,-21.59765 -4.7466,-4.87897 -10.7395,-8.47702 -17.1797,-9.0625 -0.7834,-0.0712 -2.6298,0.26486 -4.4766,0.76757 l -0.1289,0.22657 -0.039,-0.17578 c -0.5221,0.14508 -1.0467,0.29734 -1.5391,0.46289 -0.1686,0.0567 -0.3115,0.11119 -0.4746,0.16796 7.6951,7.74881 12.9451,17.69844 15.9727,28.14063 2.6139,9.01595 4.7522,19.18815 3.9355,28.98242 z"
       style="color:#000000;font-style:normal;font-variant:normal;font-weight:normal;font-stretch:normal;font-size:medium;line-height:normal;font-family:sans-serif;font-variant-ligatures:normal;font-variant-position:normal;font-variant-caps:normal;font-variant-numeric:normal;font-variant-alternates:normal;font-feature-settings:normal;text-indent:0;text-align:start;text-decoration:none;text-decoration-line:none;text-decoration-style:solid;text-decoration-color:#000000;letter-spacing:normal;word-spacing:normal;text-transform:none;writing-mode:lr-tb;direction:ltr;text-orientation:mixed;dominant-baseline:auto;baseline-shift:baseline;text-anchor:start;white-space:normal;shape-padding:0;clip-rule:nonzero;display:inline;overflow:visible;visibility:visible;opacity:1;isolation:auto;mix-blend-mode:normal;color-interpolation:sRGB;color-interpolation-filters:linearRGB;solid-color:#000000;solid-opacity:1;vector-effect:none;fill:#ff1820;fill-opacity:1;fill-rule:nonzero;stroke:none;stroke-width:5;stroke-linecap:butt;stroke-linejoin:miter;stroke-miterlimit:4;stroke-dasharray:none;stroke-dashoffset:0;stroke-opacity:1;color-rendering:auto;image-rendering:auto;shape-rendering:auto;text-rendering:auto;enable-background:accumulate" />
    <path
       inkscape:connector-curvature="0"
       id="path5023"
       d="m 1195.4902,626.43359 c 1.5047,1.32326 4.3264,3.71803 7.8672,6.23243 5.1888,3.68458 11.7918,7.25384 16.1211,7.48437 3.7826,0.20141 9.8643,-1.80065 11.7774,-4.27344 1.9542,-2.79626 2.073,-8.82008 0.5566,-15.24023 -1.5204,-6.43709 -4.4361,-13.16082 -6.9687,-17.25781 -0.6044,-0.95222 -2.0273,-2.56296 -3.3633,-3.94141 -0.1725,1.19412 -0.2315,2.33253 -0.08,3.41602 0.022,0.15851 0.4218,1.29212 0.8476,2.13867 0.4258,0.84655 0.8243,1.50586 0.8243,1.50586 l -4.2774,2.58789 c 0,0 -0.4925,-0.80942 -1.0137,-1.84571 -0.5211,-1.03628 -1.1248,-2.19872 -1.3339,-3.69531 -0.9446,-6.76057 2.2974,-12.49329 2.2734,-17.27148 -0.023,-4.54548 -0.3387,-9.05377 -1.8379,-12.87891 -2.6372,-6.72836 -5.7124,-12.28231 -11.2539,-16.05078 -4.8995,-3.1678 -8.7432,-3.39392 -12.0644,-1.92187 -3.3178,1.47053 -6.3338,4.98527 -8.461,10.18554 -0.6408,1.67708 -1.059,6.95175 -1.043,11.38672 0.013,3.55244 0.1574,6.15307 0.2247,7.27148 0.085,0.0858 0.1776,0.16552 0.2617,0.25196 4.095,4.20923 6.9906,9.24867 8.9101,14.64258 0.385,-0.0303 0.7001,-0.0439 1.1465,-0.0957 1.7141,-0.19898 3.7616,-0.71214 4.375,-1.07422 0.4328,-0.25544 2.3208,-1.93461 3.7344,-3.39648 1.4136,-1.46187 2.5723,-2.77539 2.5723,-2.77539 l 3.75,3.30664 c 0,0 -1.2235,1.38688 -2.7286,2.94336 -1.505,1.55647 -3.0709,3.21355 -4.7871,4.22656 -2.0287,1.19748 -4.3476,1.50528 -6.3379,1.73633 -0.1031,0.012 -0.1645,0.0106 -0.2656,0.0215 0.3871,1.58659 0.7016,3.19006 0.9453,4.80079 0.8556,5.65459 1.0348,11.79579 -0.3711,17.58007 z"
       style="color:#000000;font-style:normal;font-variant:normal;font-weight:normal;font-stretch:normal;font-size:medium;line-height:normal;font-family:sans-serif;font-variant-ligatures:normal;font-variant-position:normal;font-variant-caps:normal;font-variant-numeric:normal;font-variant-alternates:normal;font-feature-settings:normal;text-indent:0;text-align:start;text-decoration:none;text-decoration-line:none;text-decoration-style:solid;text-decoration-color:#000000;letter-spacing:normal;word-spacing:normal;text-transform:none;writing-mode:lr-tb;direction:ltr;text-orientation:mixed;dominant-baseline:auto;baseline-shift:baseline;text-anchor:start;white-space:normal;shape-padding:0;clip-rule:nonzero;display:inline;overflow:visible;visibility:visible;opacity:1;isolation:auto;mix-blend-mode:normal;color-interpolation:sRGB;color-interpolation-filters:linearRGB;solid-color:#000000;solid-opacity:1;vector-effect:none;fill:#ff1820;fill-opacity:1;fill-rule:nonzero;stroke:none;stroke-width:5;stroke-linecap:butt;stroke-linejoin:miter;stroke-miterlimit:4;stroke-dasharray:none;stroke-dashoffset:0;stroke-opacity:1;color-rendering:auto;image-rendering:auto;shape-rendering:auto;text-rendering:auto;enable-background:accumulate" />
    <path
       inkscape:connector-curvature="0"
       id="path5029"
       d="m 1130.0684,572.97852 c -3.5593,-0.0903 -6.6542,0.69743 -8.7696,2.5 -3.2996,3.26626 -3.6396,7.10994 -2.5488,13.09375 1.0585,5.80625 3.453,11.54963 5.5605,16.01757 1.3177,-5.15102 2.6719,-9.34375 2.6719,-9.34375 l 4.752,1.55274 c 0,0 -1.3366,4.09302 -2.6406,9.24609 -1.3041,5.15308 -2.5242,11.4422 -2.4043,15.1582 0.3454,10.71138 2.0474,22.18517 8.1035,30.14649 2.3588,3.10098 5.4698,6.30133 8.8203,8.54101 3.3504,2.23971 6.852,3.47765 10.164,3.11915 6.5436,-0.70828 12.8637,-8.17792 15.7598,-15.12696 4.3228,-10.37248 2.6813,-23.23371 -0.4316,-34.96093 -1.8664,0.0441 -6.1899,0.14447 -8.9395,0.21679 -1.2514,0.0329 -3.9249,0.83032 -6.043,1.6875 -2.118,0.85719 -3.7656,1.69922 -3.7656,1.69922 l -2.2773,-4.45117 c 0,0 1.8264,-0.93598 4.166,-1.88281 2.3395,-0.94684 5.1071,-1.98028 7.7871,-2.05079 2.3665,-0.0623 5.2561,-0.12873 7.6563,-0.18554 -3.6661,-11.41678 -10.1788,-21.86623 -19.6524,-28.83399 -3.7506,-2.54978 -9.1404,-4.87951 -14.2441,-5.76171 -1.2798,-0.22123 -2.5279,-0.35046 -3.7246,-0.38086 z"
       style="color:#000000;font-style:normal;font-variant:normal;font-weight:normal;font-stretch:normal;font-size:medium;line-height:normal;font-family:sans-serif;font-variant-ligatures:normal;font-variant-position:normal;font-variant-caps:normal;font-variant-numeric:normal;font-variant-alternates:normal;font-feature-settings:normal;text-indent:0;text-align:start;text-decoration:none;text-decoration-line:none;text-decoration-style:solid;text-decoration-color:#000000;letter-spacing:normal;word-spacing:normal;text-transform:none;writing-mode:lr-tb;direction:ltr;text-orientation:mixed;dominant-baseline:auto;baseline-shift:baseline;text-anchor:start;white-space:normal;shape-padding:0;clip-rule:nonzero;display:inline;overflow:visible;visibility:visible;opacity:1;isolation:auto;mix-blend-mode:normal;color-interpolation:sRGB;color-interpolation-filters:linearRGB;solid-color:#000000;solid-opacity:1;vector-effect:none;fill:#ff1820;fill-opacity:1;fill-rule:nonzero;stroke:none;stroke-width:5;stroke-linecap:butt;stroke-linejoin:miter;stroke-miterlimit:4;stroke-dasharray:none;stroke-dashoffset:0;stroke-opacity:1;color-rendering:auto;image-rendering:auto;shape-rendering:auto;text-rendering:auto;enable-background:accumulate" />
  </g>
  <g
     inkscape:groupmode="layer"
     id="layer8"
     inkscape:label="6. Stroke Red"
     style="display:inline;opacity:0"
     sodipodi:insensitive="true">
    <path
       style="opacity:1;vector-effect:none;fill:none;fill-opacity:1;stroke:#000000;stroke-width:1px;stroke-linecap:butt;stroke-linejoin:miter;stroke-miterlimit:4;stroke-dasharray:none;stroke-dashoffset:0;stroke-opacity:1"
       d="m 399.61015,141.86719 c 0,0 -39.05699,22.38519 -39.04237,41.33898 0.0155,20.03601 21.30299,43.66838 41.33898,43.63559 17.87161,-0.0292 37.75885,-21.19947 36.74576,-39.04237 -0.73901,-13.01566 -16.83057,-25.80449 -29.85593,-25.26271 -9.73527,0.40493 -36.40112,10.38485 -35.59746,20.09534 0.28881,3.48961 15.75148,29.529 24.79269,27.34023 3.49525,-0.84616 18.41952,0.4722 23.11344,-6.15742 3.39546,-4.7957 6.97142,-18.89206 -0.0339,-21.25399 -2.60134,-0.87708 -20.34636,-9.47299 -24.9296,-7.44582 -4.88247,2.15951 -1.699,17.27759 -1.699,17.27759"
       id="path1193"
       inkscape:connector-curvature="0"
       sodipodi:nodetypes="csssssssssc" />
    <path
       style="opacity:1;vector-effect:none;fill:none;fill-opacity:1;stroke:#000000;stroke-width:9.44881916;stroke-linecap:round;stroke-linejoin:miter;stroke-miterlimit:4;stroke-dasharray:none;stroke-dashoffset:0;stroke-opacity:1"
       d="m 1134.8124,596.59598 c 0,0 -3.8921,13.64392 -4.3061,20.66949 -0.5142,8.72643 -0.8568,17.97095 2.2966,26.12394 1.9953,5.15872 5.3783,10.24062 10.0477,13.20551 3.4699,2.20327 8.1022,3.70296 12.0572,2.58369 5.7309,-1.62187 10.6339,-6.84381 12.9184,-12.34428 3.5243,-8.48567 -1.779,-18.45023 -0.5741,-27.55932 0.2893,-2.18694 -1.0174,-3.19529 -1.0174,-3.19529 0,0 -5.738,-0.0659 -8.4562,0.6116 -2.9669,0.73944 -5.7931,4.34171 -8.6122,3.15784 -3.0011,-1.26026 -5.1435,-5.8448 -4.0191,-8.89937 1.316,-3.57516 6.6173,-4.04671 10.3347,-4.88029 2.988,-0.67002 9.1865,0 9.1865,0 0,0 -5.4722,-12.03175 -9.7606,-16.65043 -4.9664,-5.34884 -11.0665,-10.34308 -18.0858,-12.34427 -4.2372,-1.20801 -9.7831,-2.20068 -13.2055,0.57415 -2.6862,2.17791 -2.6466,6.59006 -2.5837,10.04767 0.049,2.69427 3.2777,16.89322 3.2777,16.89322 0,0 -0.1953,-13.61961 1.6026,-14.30954 2.6876,-1.03134 8.0381,3.15784 8.0381,3.15784"
       id="path1195"
       inkscape:connector-curvature="0"
       sodipodi:nodetypes="csssssscsssscsssscsc" />
    <path
       style="opacity:1;vector-effect:none;fill:none;fill-opacity:1;stroke:#000000;stroke-width:9.44881916;stroke-linecap:round;stroke-linejoin:miter;stroke-miterlimit:4;stroke-dasharray:none;stroke-dashoffset:0;stroke-opacity:1"
       d="m 1164.0942,650.27924 -5.1673,-29.85593 -9.1865,2.87076 7.1769,30.71716 -7.751,1.43538 -12.0572,-46.79343 -3.445,10.9089 6.8899,29.56886"
       id="path1197"
       inkscape:connector-curvature="0" />
    <path
       style="opacity:1;vector-effect:none;fill:none;fill-opacity:1;stroke:#000000;stroke-width:9.44881916;stroke-linecap:round;stroke-linejoin:miter;stroke-miterlimit:4;stroke-dasharray:none;stroke-dashoffset:0;stroke-opacity:1"
       d="m 1127.0614,581.09386 3.1578,6.31568 6.3157,3.73199 -4.8803,-11.77012 8.0381,4.30614 5.4545,22.10487 7.1769,-3.15784 -6.6028,-16.07626 8.8994,8.3252 2.2966,8.61229"
       id="path1199"
       inkscape:connector-curvature="0"
       sodipodi:nodetypes="cccccccccc" />
    <path
       style="opacity:1;vector-effect:none;fill:none;fill-opacity:1;stroke:#000000;stroke-width:9.44881916;stroke-linecap:round;stroke-linejoin:miter;stroke-miterlimit:4;stroke-dasharray:none;stroke-dashoffset:0;stroke-opacity:1"
       d="m 1159.1777,579.93555 c 0,0 9.6173,8.82262 12.0934,14.6509 4.6753,11.00476 5.6457,13.99473 7.177,21.53072 1.2078,5.94423 0.8611,19.52118 0.8611,19.52118 0,0 5.3914,-1.24742 6.8899,-2.87076 3.7314,-4.04232 2.1252,-10.57623 2.0095,-16.07627 -0.1356,-6.45265 -0.5059,-11.92171 -3.732,-17.51165 -3.8897,-6.73982 -8.8303,-14.96114 -16.0762,-17.79873 -1.8733,-0.7336 -6.0286,0.28708 -6.0286,0.28708"
       id="path1201"
       inkscape:connector-curvature="0"
       sodipodi:nodetypes="csscssssc" />
    <path
       style="opacity:1;vector-effect:none;fill:none;fill-opacity:1;stroke:#000000;stroke-width:7.55905533;stroke-linecap:butt;stroke-linejoin:miter;stroke-miterlimit:4;stroke-dasharray:none;stroke-dashoffset:0;stroke-opacity:1"
       d="m 1174.429,592.86399 10.9089,31.29131"
       id="path1203"
       inkscape:connector-curvature="0" />
    <path
       style="opacity:1;vector-effect:none;fill:none;fill-opacity:1;stroke:#000000;stroke-width:9.44881916;stroke-linecap:round;stroke-linejoin:miter;stroke-miterlimit:4;stroke-dasharray:none;stroke-dashoffset:0;stroke-opacity:1"
       d="m 1202.5624,589.70615 -4.3061,6.31568 h -3.1578 c 0,0 -2.5188,-5.06941 -4.0191,-7.46398 -1.1281,-1.8005 -3.0403,-3.15842 -3.732,-5.16738 -1.6523,-4.7988 -1.9671,-10.33463 -0.5742,-15.21504 1.2674,-4.44076 3.4036,-9.92543 7.7511,-11.48305 3.4773,-1.24586 7.7083,0.88736 10.6218,3.15784 5.618,4.37804 9.226,11.45207 10.9089,18.37288 1.1551,4.75032 -0.1054,9.81093 -0.8612,14.64089 -0.5346,3.4166 -1.2919,6.30539 -1.1483,9.76059 0.097,2.32824 0.8612,6.31568 0.8612,6.31568"
       id="path1205"
       inkscape:connector-curvature="0"
       sodipodi:nodetypes="cccssssssssc" />
    <path
       style="opacity:1;vector-effect:none;fill:none;fill-opacity:1;stroke:#000000;stroke-width:9.44881916;stroke-linecap:round;stroke-linejoin:miter;stroke-miterlimit:4;stroke-dasharray:none;stroke-dashoffset:0;stroke-opacity:1"
       d="m 1199.9788,560.71145 -10.6219,12.34428 1.7225,8.61229 14.3538,-16.9375 4.3061,6.88983 -14.3538,16.65042 2.2966,2.58369 15.2151,-10.33475 0.2871,9.76059 -6.8899,7.17691"
       id="path1207"
       inkscape:connector-curvature="0" />
    <path
       style="opacity:1;vector-effect:none;fill:none;fill-opacity:1;stroke:#000000;stroke-width:9.44881916;stroke-linecap:round;stroke-linejoin:miter;stroke-miterlimit:4;stroke-dasharray:none;stroke-dashoffset:0;stroke-opacity:1"
       d="m 1209.1652,602.05043 c 0,0 -14.4794,1.52692 -12.0572,5.16737 5.2861,7.94486 2.2472,6.25418 2.0095,9.47352 -0.2551,3.4558 -2.1592,4.85128 -0.7564,8.01984 1.1531,2.60467 2.5418,3.57209 5.0626,4.89859 4.2746,2.24939 5.0534,4.08388 9.7606,5.16738 4.1411,0.95319 10.996,4.08575 14.0667,1.1483 3.0923,-2.95825 0.9229,-8.36611 0.5741,-12.63136 -0.5796,-7.08916 -1.8696,-22.04063 -8.8993,-20.95656 -2.5553,0.39405 4.0191,8.61228 4.0191,8.61228"
       id="path1209"
       inkscape:connector-curvature="0"
       sodipodi:nodetypes="cssssssssc" />
    <path
       style="opacity:1;vector-effect:none;fill:none;fill-opacity:1;stroke:#000000;stroke-width:9.44881916;stroke-linecap:round;stroke-linejoin:miter;stroke-miterlimit:4;stroke-dasharray:none;stroke-dashoffset:0;stroke-opacity:1"
       d="m 1206.2945,609.51441 c 0,0 -2.5587,13.32771 1.1483,18.08581 1.9264,2.4727 5.0043,3.95266 7.4639,2.00953 4.1305,-3.26317 -3.9926,-12.72443 0.2871,-15.78919 2.0422,-1.46242 5.7667,0.21804 7.1769,2.29661 3.1234,4.60377 -1.1483,16.65042 -1.1483,16.65042"
       id="path1211"
       inkscape:connector-curvature="0"
       sodipodi:nodetypes="cssssc" />
  </g>
</svg>
