<?xml version="1.0" encoding="UTF-8" standalone="no"?>
<!-- Created with Inkscape (http://www.inkscape.org/) -->

<svg
   xmlns:dc="http://purl.org/dc/elements/1.1/"
   xmlns:cc="http://creativecommons.org/ns#"
   xmlns:rdf="http://www.w3.org/1999/02/22-rdf-syntax-ns#"
   xmlns:svg="http://www.w3.org/2000/svg"
   xmlns="http://www.w3.org/2000/svg"
   xmlns:sodipodi="http://sodipodi.sourceforge.net/DTD/sodipodi-0.dtd"
   xmlns:inkscape="http://www.inkscape.org/namespaces/inkscape"
   version="1.1"
   id="svg815"
   width="420mm"
   height="297mm"
   viewBox="0 0 1587.4016 1122.5197"
   sodipodi:docname="7. Donald - Fill Cyan.svg"
   inkscape:version="0.92.4 (5da689c313, 2019-01-14)">
  <metadata
     id="metadata821">
    <rdf:RDF>
      <cc:Work
         rdf:about="">
        <dc:format>image/svg+xml</dc:format>
        <dc:type
           rdf:resource="http://purl.org/dc/dcmitype/StillImage" />
        <dc:title />
      </cc:Work>
    </rdf:RDF>
  </metadata>
  <defs
     id="defs819" />
  <sodipodi:namedview
     pagecolor="#ffffff"
     bordercolor="#666666"
     borderopacity="1"
     objecttolerance="10"
     gridtolerance="10"
     guidetolerance="10"
     inkscape:pageopacity="0"
     inkscape:pageshadow="2"
     inkscape:window-width="1600"
     inkscape:window-height="877"
     id="namedview817"
     showgrid="false"
     units="mm"
     inkscape:zoom="0.87084875"
     inkscape:cx="1120.3823"
     inkscape:cy="577.81516"
     inkscape:window-x="-8"
     inkscape:window-y="-8"
     inkscape:window-maximized="1"
     inkscape:current-layer="layer9" />
  <g
     inkscape:groupmode="layer"
     id="layer2"
     inkscape:label="0. Fake"
     sodipodi:insensitive="true"
     style="display:inline">
    <rect
       style="opacity:1;fill:none;fill-opacity:1;fill-rule:evenodd;stroke:none;stroke-width:5;stroke-miterlimit:4;stroke-dasharray:none;stroke-opacity:1"
       id="rect4303"
       width="1552.5084"
       height="1095.483"
       x="25.262711"
       y="17.850235" />
  </g>
  <g
     inkscape:groupmode="layer"
     id="g5117"
     inkscape:label="7. Fill Cyan"
     style="display:inline"
     sodipodi:insensitive="true">
    <path
       inkscape:connector-curvature="0"
       id="path5061"
       d="m 1167.2852,360.51367 c 0.023,-0.0454 0.04,-0.0892 0.064,-0.13476 0.5903,-1.09278 1.7332,-2.34692 3.3828,-2.73633 1.801,-0.42514 3.1671,0.23793 4.2656,0.86133 1.0986,0.6234 1.996,1.37293 2.6602,2 3.5431,3.34498 5.3766,7.6582 6.9121,11.66992 1.6236,4.24189 2.3995,8.70433 2.793,13.05078 0.1038,1.14681 0.08,2.50972 0.029,3.77539 0.5637,-0.3173 1.7521,-1.51855 2.8105,-2.87891 0.02,-0.84039 0.1594,-7.12234 -0.164,-15.32812 -0.3458,-8.76992 -1.3023,-19.22113 -3.2754,-25.15235 -4.2937,-12.90679 -10.96,-26.25301 -21.5879,-33.65234 -2.3516,-1.63724 -5.7345,-3.42944 -8.9473,-4.35937 -2.9001,-0.83939 -5.3962,-0.78218 -7.1387,0.002 -0.3891,1.08751 -0.6024,2.64051 -0.3281,4.86328 0.3293,2.66789 1.2201,6.00495 2.502,9.72266 2.5636,7.4354 6.6666,16.40663 10.6894,25.41797 1.9442,4.35498 3.7125,8.69663 5.3321,12.8789 z"
       style="color:#000000;font-style:normal;font-variant:normal;font-weight:normal;font-stretch:normal;font-size:medium;line-height:normal;font-family:sans-serif;font-variant-ligatures:normal;font-variant-position:normal;font-variant-caps:normal;font-variant-numeric:normal;font-variant-alternates:normal;font-feature-settings:normal;text-indent:0;text-align:start;text-decoration:none;text-decoration-line:none;text-decoration-style:solid;text-decoration-color:#000000;letter-spacing:normal;word-spacing:normal;text-transform:none;writing-mode:lr-tb;direction:ltr;text-orientation:mixed;dominant-baseline:auto;baseline-shift:baseline;text-anchor:start;white-space:normal;shape-padding:0;clip-rule:nonzero;display:inline;overflow:visible;visibility:visible;opacity:1;isolation:auto;mix-blend-mode:normal;color-interpolation:sRGB;color-interpolation-filters:linearRGB;solid-color:#000000;solid-opacity:1;vector-effect:none;fill:#b4eeff;fill-opacity:1;fill-rule:nonzero;stroke:none;stroke-width:5;stroke-linecap:butt;stroke-linejoin:miter;stroke-miterlimit:4;stroke-dasharray:none;stroke-dashoffset:0;stroke-opacity:1;color-rendering:auto;image-rendering:auto;shape-rendering:auto;text-rendering:auto;enable-background:accumulate" />
    <path
       inkscape:connector-curvature="0"
       id="path5069"
       d="m 1143.6816,403.39062 c -0.1069,-1.15525 -0.5556,-5.89941 -1.4472,-12.23242 -1.007,-7.15236 -2.571,-15.58162 -4.2871,-19.84375 -6.6023,-16.39744 -15.1904,-33.06628 -28.5274,-43.76953 -8.1939,-6.57579 -18.9592,-12.31646 -28.5137,-10.95703 -5.5568,0.79064 -11.2919,5.57758 -14.25,10.8125 -5.0795,8.98987 -4.4425,21.17763 -3.1386,32.35547 1.0173,8.72231 5.7887,22.36227 10.6836,34.42187 0.2568,-1.83401 0.8491,-3.6316 2.1679,-5.23828 l 0.025,-0.0312 0.025,-0.0293 c 1.8553,-2.12001 4.4767,-2.65576 6.7363,-2.57813 v 0 c 4.0334,0.13986 7.5098,2.21325 10.2188,4.41602 5.5034,4.47498 8.9528,10.72489 11.916,16.53515 3.1787,6.23287 5.4244,13.00293 6.6289,19.88867 0.5719,3.26934 0.5155,7.94041 0.4258,10.67969 3.2794,0.023 6.4467,-0.57619 9,-1.98437 4.9846,-2.74923 9.218,-9.04171 13.123,-16.11914 3.0415,-5.5124 5.8845,-11.40207 9.2109,-16.32618 z"
       style="color:#000000;font-style:normal;font-variant:normal;font-weight:normal;font-stretch:normal;font-size:medium;line-height:normal;font-family:sans-serif;font-variant-ligatures:normal;font-variant-position:normal;font-variant-caps:normal;font-variant-numeric:normal;font-variant-alternates:normal;font-feature-settings:normal;text-indent:0;text-align:start;text-decoration:none;text-decoration-line:none;text-decoration-style:solid;text-decoration-color:#000000;letter-spacing:normal;word-spacing:normal;text-transform:none;writing-mode:lr-tb;direction:ltr;text-orientation:mixed;dominant-baseline:auto;baseline-shift:baseline;text-anchor:start;white-space:normal;shape-padding:0;clip-rule:nonzero;display:inline;overflow:visible;visibility:visible;opacity:1;isolation:auto;mix-blend-mode:normal;color-interpolation:sRGB;color-interpolation-filters:linearRGB;solid-color:#000000;solid-opacity:1;vector-effect:none;fill:#b4eeff;fill-opacity:1;fill-rule:nonzero;stroke:none;stroke-width:5;stroke-linecap:butt;stroke-linejoin:miter;stroke-miterlimit:4;stroke-dasharray:none;stroke-dashoffset:0;stroke-opacity:1;color-rendering:auto;image-rendering:auto;shape-rendering:auto;text-rendering:auto;enable-background:accumulate" />
  </g>
  <g
     inkscape:groupmode="layer"
     id="layer9"
     inkscape:label="7. Stroke Cyan"
     sodipodi:insensitive="true"
     style="display:inline;opacity:0">
    <path
       style="display:inline;opacity:1;vector-effect:none;fill:none;fill-opacity:1;stroke:#000000;stroke-width:1px;stroke-linecap:butt;stroke-linejoin:miter;stroke-miterlimit:4;stroke-dasharray:none;stroke-dashoffset:0;stroke-opacity:1"
       d="m 394.99823,609.19422 c 0,0 -39.05699,22.38519 -39.04237,41.33898 0.0155,20.03601 21.30299,43.66838 41.33898,43.63559 17.87161,-0.0292 37.75885,-21.19947 36.74576,-39.04237 -0.73901,-13.01566 -16.83057,-25.80449 -29.85593,-25.26271 -9.73527,0.40493 -36.40112,10.38485 -35.59746,20.09534 0.28881,3.48961 15.75148,29.529 24.79269,27.34023 3.49525,-0.84616 18.41952,0.4722 23.11344,-6.15742 3.39546,-4.7957 6.97142,-18.89206 -0.0339,-21.25399 -2.60134,-0.87708 -20.34636,-9.47299 -24.9296,-7.44582 -4.88247,2.15951 -1.699,17.27759 -1.699,17.27759"
       id="path1193-9"
       inkscape:connector-curvature="0"
       sodipodi:nodetypes="csssssssssc" />
    <path
       style="opacity:1;vector-effect:none;fill:none;fill-opacity:1;stroke:#000000;stroke-width:9.44881916;stroke-linecap:round;stroke-linejoin:miter;stroke-miterlimit:4;stroke-dasharray:none;stroke-dashoffset:0;stroke-opacity:1"
       d="m 1075.8659,389.30692 c 0,0 -6.1649,-14.88384 -7.7137,-22.73528 -1.6794,-8.5139 -3.7307,-17.56481 -1.624,-25.98318 1.8143,-7.25022 5.0008,-15.92122 11.7736,-19.0814 5.9488,-2.77571 13.5363,0.0712 19.4874,2.84191 7.3866,3.43898 13.1668,9.88719 18.2694,16.23949 7.4743,9.3049 13.3789,20.04446 17.4575,31.26101 3.9546,10.87534 8.8676,22.77658 6.4958,34.10292 -1.1771,5.62119 -6.9133,9.80107 -9.7437,14.20955 -2.8304,4.40848 -3.6751,9.14319 -7.3078,12.17961 -1.9039,1.5914 -6.9616,2.63689 -6.9616,2.63689 0,0 -0.98,-12.51066 -2.7821,-18.47039 -2.0327,-6.72217 -4.3959,-13.00163 -8.9317,-19.08139 -4.5358,-6.07976 -9.9641,-13.35618 -17.9823,-14.80411 -4.427,-0.79942 -12.8727,3.43647 -12.8727,3.43647"
       id="path1231"
       inkscape:connector-curvature="0"
       sodipodi:nodetypes="cssssssszscszsc" />
    <path
       style="opacity:1;vector-effect:none;fill:none;fill-opacity:1;stroke:#000000;stroke-width:9.44881916;stroke-linecap:round;stroke-linejoin:miter;stroke-miterlimit:4;stroke-dasharray:none;stroke-dashoffset:0;stroke-opacity:1"
       d="m 1069.5026,352.7247 9.7606,27.27224 7.0334,-1.1483 -14.7845,-39.9036 3.0143,-8.03814 22.5355,52.53496 7.7511,6.74629 -25.2627,-64.44862 7.4639,-1.00476 34.8798,102.19914 3.1579,-6.74629 -32.1526,-94.30455 8.4688,5.45445 28.8511,83.25211 4.8803,-6.88983 -25.2627,-68.75476 11.3395,16.50688 14.3538,39.9036"
       id="path1233"
       inkscape:connector-curvature="0" />
    <path
       style="opacity:1;vector-effect:none;fill:none;fill-opacity:1;stroke:#000000;stroke-width:7.55905533;stroke-linecap:round;stroke-linejoin:miter;stroke-miterlimit:4;stroke-dasharray:none;stroke-dashoffset:0;stroke-opacity:1"
       d="m 1168.6874,358.7533 c 0,0 -13.5679,-26.55499 -17.081,-40.90837 -0.6735,-2.7518 -2.7664,-6.51194 -0.7177,-8.46874 2.1286,-2.03317 6.0697,-0.0557 8.7558,1.1483 5.0767,2.27551 9.1943,6.53431 12.6314,10.9089 5.3806,6.84823 9.0773,15.01883 11.9137,23.25317 1.6503,4.7909 2.0935,9.92077 2.8707,14.92797 1.3647,8.7921 3.1421,26.50656 3.1421,26.50656 l -1.5187,1.58707 c 0,0 -0.7701,-6.52094 -1.4798,-9.72075 -0.9934,-4.47865 -1.4498,-9.31182 -3.8756,-13.20551 -2.4711,-3.96648 -5.7495,-8.57037 -10.3347,-9.47351 -1.9011,-0.37446 -5.4545,2.00953 -5.4545,2.00953"
       id="path1237"
       inkscape:connector-curvature="0"
       sodipodi:nodetypes="cssssssccsssc" />
    <path
       style="opacity:1;vector-effect:none;fill:none;fill-opacity:1;stroke:#000000;stroke-width:9.44881916;stroke-linecap:round;stroke-linejoin:miter;stroke-miterlimit:4;stroke-dasharray:none;stroke-dashoffset:0;stroke-opacity:1"
       d="m 1154.0466,311.24218 16.9375,40.90837 6.1721,1.29184 -16.5069,-38.61176 6.7463,5.45445 15.7892,37.89407"
       id="path1239"
       inkscape:connector-curvature="0" />
  </g>
</svg>
