<?xml version="1.0" encoding="UTF-8" standalone="no"?>
<!-- Created with Inkscape (http://www.inkscape.org/) -->

<svg
   xmlns:dc="http://purl.org/dc/elements/1.1/"
   xmlns:cc="http://creativecommons.org/ns#"
   xmlns:rdf="http://www.w3.org/1999/02/22-rdf-syntax-ns#"
   xmlns:svg="http://www.w3.org/2000/svg"
   xmlns="http://www.w3.org/2000/svg"
   xmlns:sodipodi="http://sodipodi.sourceforge.net/DTD/sodipodi-0.dtd"
   xmlns:inkscape="http://www.inkscape.org/namespaces/inkscape"
   version="1.1"
   id="svg815"
   width="420mm"
   height="297mm"
   viewBox="0 0 1587.4016 1122.5197"
   sodipodi:docname="8. Donald - Fill Yellow.svg"
   inkscape:version="0.92.4 (5da689c313, 2019-01-14)">
  <metadata
     id="metadata821">
    <rdf:RDF>
      <cc:Work
         rdf:about="">
        <dc:format>image/svg+xml</dc:format>
        <dc:type
           rdf:resource="http://purl.org/dc/dcmitype/StillImage" />
        <dc:title />
      </cc:Work>
    </rdf:RDF>
  </metadata>
  <defs
     id="defs819" />
  <sodipodi:namedview
     pagecolor="#ffffff"
     bordercolor="#666666"
     borderopacity="1"
     objecttolerance="10"
     gridtolerance="10"
     guidetolerance="10"
     inkscape:pageopacity="0"
     inkscape:pageshadow="2"
     inkscape:window-width="1600"
     inkscape:window-height="877"
     id="namedview817"
     showgrid="false"
     units="mm"
     inkscape:zoom="0.87084875"
     inkscape:cx="1120.3823"
     inkscape:cy="577.81516"
     inkscape:window-x="-8"
     inkscape:window-y="-8"
     inkscape:window-maximized="1"
     inkscape:current-layer="g5053" />
  <g
     inkscape:groupmode="layer"
     id="layer2"
     inkscape:label="0. Fake"
     sodipodi:insensitive="true"
     style="display:inline">
    <rect
       style="opacity:1;fill:none;fill-opacity:1;fill-rule:evenodd;stroke:none;stroke-width:5;stroke-miterlimit:4;stroke-dasharray:none;stroke-opacity:1"
       id="rect4303"
       width="1552.5084"
       height="1095.483"
       x="25.262711"
       y="17.850235" />
  </g>
  <g
     style="display:inline"
     inkscape:label="8. Fill Yellow"
     id="g5053"
     inkscape:groupmode="layer"
     sodipodi:insensitive="true">
    <path
       style="color:#000000;font-style:normal;font-variant:normal;font-weight:normal;font-stretch:normal;font-size:medium;line-height:normal;font-family:sans-serif;font-variant-ligatures:normal;font-variant-position:normal;font-variant-caps:normal;font-variant-numeric:normal;font-variant-alternates:normal;font-feature-settings:normal;text-indent:0;text-align:start;text-decoration:none;text-decoration-line:none;text-decoration-style:solid;text-decoration-color:#000000;letter-spacing:normal;word-spacing:normal;text-transform:none;writing-mode:lr-tb;direction:ltr;text-orientation:mixed;dominant-baseline:auto;baseline-shift:baseline;text-anchor:start;white-space:normal;shape-padding:0;clip-rule:nonzero;display:inline;overflow:visible;visibility:visible;opacity:1;isolation:auto;mix-blend-mode:normal;color-interpolation:sRGB;color-interpolation-filters:linearRGB;solid-color:#000000;solid-opacity:1;vector-effect:none;fill:#ffff00;fill-opacity:1;fill-rule:nonzero;stroke:none;stroke-width:5;stroke-linecap:butt;stroke-linejoin:miter;stroke-miterlimit:4;stroke-dasharray:none;stroke-dashoffset:0;stroke-opacity:1;color-rendering:auto;image-rendering:auto;shape-rendering:auto;text-rendering:auto;enable-background:accumulate"
       d="m 1202.3008,531.72852 c -0.6399,3.11362 -1.7837,8.11741 -3.332,11.93554 -0.7567,1.86582 -1.8942,4.03413 -3.0293,6.03321 1.1874,-0.12138 2.4075,-0.11161 3.6523,0.0508 v 0 c 0.7542,0.0986 1.5185,0.25256 2.2871,0.45703 1.086,-1.78339 3.5355,-5.82217 4.7089,-8.0586 0.7286,-1.3885 1.6325,-4.36293 2.2344,-6.84179 0.1678,-0.6912 0.2681,-1.18839 0.3965,-1.77539 -1.0152,-0.0867 -2.0392,-0.26069 -3.0605,-0.5625 -1.2938,-0.38232 -2.5791,-0.80175 -3.8594,-1.23828 z"
       id="path5035"
       inkscape:connector-curvature="0" />
    <path
       style="color:#000000;font-style:normal;font-variant:normal;font-weight:normal;font-stretch:normal;font-size:medium;line-height:normal;font-family:sans-serif;font-variant-ligatures:normal;font-variant-position:normal;font-variant-caps:normal;font-variant-numeric:normal;font-variant-alternates:normal;font-feature-settings:normal;text-indent:0;text-align:start;text-decoration:none;text-decoration-line:none;text-decoration-style:solid;text-decoration-color:#000000;letter-spacing:normal;word-spacing:normal;text-transform:none;writing-mode:lr-tb;direction:ltr;text-orientation:mixed;dominant-baseline:auto;baseline-shift:baseline;text-anchor:start;white-space:normal;shape-padding:0;clip-rule:nonzero;display:inline;overflow:visible;visibility:visible;opacity:1;isolation:auto;mix-blend-mode:normal;color-interpolation:sRGB;color-interpolation-filters:linearRGB;solid-color:#000000;solid-opacity:1;vector-effect:none;fill:#ffff00;fill-opacity:1;fill-rule:nonzero;stroke:none;stroke-width:5;stroke-linecap:butt;stroke-linejoin:miter;stroke-miterlimit:4;stroke-dasharray:none;stroke-dashoffset:0;stroke-opacity:1;color-rendering:auto;image-rendering:auto;shape-rendering:auto;text-rendering:auto;enable-background:accumulate"
       d="m 1306.5469,635.93359 c -1.4762,-2.59986 -5.8192,-9.90116 -10.5508,-14.25195 -7.526,-6.92043 -20.7689,-14.15965 -30.6523,-16.14453 -5.1096,-1.0261 -13.0036,-0.74947 -19.4649,-0.13867 -5.7977,0.54806 -9.9395,1.2381 -10.8379,1.39062 -0.8045,0.96747 -1.2924,1.57591 -1.791,2.20703 1.2833,3.08451 2.4182,6.44562 3.2598,9.83789 1.7705,-0.14205 4.3882,-0.32694 8.0547,-0.42968 5.6293,-0.15775 12.3718,-0.0873 17.4335,1.1289 10.5598,2.53716 20.2912,7.03312 28.6075,14.21289 3.2552,2.81036 6.7853,7.56592 9.6914,11.73243 0.6792,0.97382 1.309,1.90082 1.8906,2.76953 1.2599,-4.19759 2.8025,-8.2813 4.3594,-12.31446 z"
       id="path5039"
       inkscape:connector-curvature="0" />
    <path
       style="color:#000000;font-style:normal;font-variant:normal;font-weight:normal;font-stretch:normal;font-size:medium;line-height:normal;font-family:sans-serif;font-variant-ligatures:normal;font-variant-position:normal;font-variant-caps:normal;font-variant-numeric:normal;font-variant-alternates:normal;font-feature-settings:normal;text-indent:0;text-align:start;text-decoration:none;text-decoration-line:none;text-decoration-style:solid;text-decoration-color:#000000;letter-spacing:normal;word-spacing:normal;text-transform:none;writing-mode:lr-tb;direction:ltr;text-orientation:mixed;dominant-baseline:auto;baseline-shift:baseline;text-anchor:start;white-space:normal;shape-padding:0;clip-rule:nonzero;display:inline;overflow:visible;visibility:visible;opacity:1;isolation:auto;mix-blend-mode:normal;color-interpolation:sRGB;color-interpolation-filters:linearRGB;solid-color:#000000;solid-opacity:1;vector-effect:none;fill:#ffff00;fill-opacity:1;fill-rule:nonzero;stroke:none;stroke-width:5;stroke-linecap:butt;stroke-linejoin:miter;stroke-miterlimit:4;stroke-dasharray:none;stroke-dashoffset:0;stroke-opacity:1;color-rendering:auto;image-rendering:auto;shape-rendering:auto;text-rendering:auto;enable-background:accumulate"
       d="m 1084.4688,639.86328 c -0.7873,1.3045 -1.8605,2.89079 -3.4024,4.83984 -5.8394,7.3818 -16.7136,16.48603 -23.6328,20.39844 -12.0209,6.79704 -25.8179,9.64106 -39.4356,9.78321 -5.3702,0.0561 -13.3506,-0.51944 -17.8183,-0.87891 0.7858,4.25631 1.4514,8.34953 2.0488,12.2168 4.4582,0.44546 14.3805,1.3248 19.5567,0.89453 13.1554,-1.09359 25.8057,-3.15765 37.4843,-8.58985 9.9324,-4.61995 18.8098,-11.48139 25.5684,-20.05273 0.9195,-1.16611 2.5798,-3.95964 3.8828,-6.33008 0.6748,-1.22769 1.2519,-2.32074 1.6719,-3.125 -1.2362,-1.90668 -2.4755,-3.74599 -3.5508,-5.4375 -0.8147,-1.28157 -1.599,-2.51531 -2.373,-3.71875 z"
       id="path5041"
       inkscape:connector-curvature="0" />
    <path
       style="color:#000000;font-style:normal;font-variant:normal;font-weight:normal;font-stretch:normal;font-size:medium;line-height:normal;font-family:sans-serif;font-variant-ligatures:normal;font-variant-position:normal;font-variant-caps:normal;font-variant-numeric:normal;font-variant-alternates:normal;font-feature-settings:normal;text-indent:0;text-align:start;text-decoration:none;text-decoration-line:none;text-decoration-style:solid;text-decoration-color:#000000;letter-spacing:normal;word-spacing:normal;text-transform:none;writing-mode:lr-tb;direction:ltr;text-orientation:mixed;dominant-baseline:auto;baseline-shift:baseline;text-anchor:start;white-space:normal;shape-padding:0;clip-rule:nonzero;display:inline;overflow:visible;visibility:visible;opacity:1;isolation:auto;mix-blend-mode:normal;color-interpolation:sRGB;color-interpolation-filters:linearRGB;solid-color:#000000;solid-opacity:1;vector-effect:none;fill:#ffff00;fill-opacity:1;fill-rule:nonzero;stroke:none;stroke-width:5;stroke-linecap:butt;stroke-linejoin:miter;stroke-miterlimit:4;stroke-dasharray:none;stroke-dashoffset:0;stroke-opacity:1;color-rendering:auto;image-rendering:auto;shape-rendering:auto;text-rendering:auto;enable-background:accumulate"
       d="m 1053.0419,540.80958 c 9.6005,1.92704 21.597,4.66955 29.1543,7.67383 13.2882,5.28243 33.9832,19.33904 37.7774,21.94532 0.805,-0.52046 1.6464,-0.96568 2.5273,-1.31836 0,0 -14.5625,-14.4005 -23.2851,-19.56836 -9.8793,-5.85318 -32.1075,-12.48438 -32.1075,-12.48438 -1.6584,0.48061 -3.2942,0.96204 -4.8554,1.48047 -3.1541,1.04735 -6.2203,1.73779 -9.211,2.27148 z"
       id="path5045"
       inkscape:connector-curvature="0"
       sodipodi:nodetypes="ccccsccc" />
  </g>
  <g
     inkscape:groupmode="layer"
     id="layer11"
     inkscape:label="8. Stroke Yellow"
     style="display:inline;opacity:0"
     sodipodi:insensitive="true">
    <path
       style="display:inline;opacity:1;vector-effect:none;fill:none;fill-opacity:1;stroke:#000000;stroke-width:1px;stroke-linecap:butt;stroke-linejoin:miter;stroke-miterlimit:4;stroke-dasharray:none;stroke-dashoffset:0;stroke-opacity:1"
       d="m 185.11144,914.35653 c 0,0 -39.05699,22.38519 -39.04237,41.33898 0.0155,20.03601 21.30299,43.66838 41.33898,43.63559 17.87161,-0.0292 37.75885,-21.19947 36.74576,-39.04237 -0.73901,-13.01566 -16.83057,-25.80449 -29.85593,-25.26271 -9.73527,0.40493 -36.40112,10.38485 -35.59746,20.09534 0.28881,3.48961 15.75148,29.529 24.79269,27.34023 3.49525,-0.84616 18.41952,0.4722 23.11344,-6.15742 3.39546,-4.7957 6.97142,-18.89206 -0.0339,-21.25399 -2.60134,-0.87708 -20.34636,-9.47299 -24.9296,-7.44582 -4.88247,2.15951 -1.699,17.27759 -1.699,17.27759"
       id="path1193-3"
       inkscape:connector-curvature="0"
       sodipodi:nodetypes="csssssssssc" />
    <path
       style="opacity:1;vector-effect:none;fill:none;fill-opacity:1;stroke:#000000;stroke-width:9.44881916;stroke-linecap:round;stroke-linejoin:miter;stroke-miterlimit:4;stroke-dasharray:none;stroke-dashoffset:0;stroke-opacity:1"
       d="m 1002.3822,676.54282 c 0,0 16.2764,2.09125 24.3593,1.21796 11.293,-1.22012 22.902,-3.51303 32.8849,-8.93172 9.013,-4.89221 8.6577,-5.46223 15.8335,-12.78859 0.873,-0.89134 8.2958,-13.88729 9.5407,-13.80357 1.367,0.0919 2.2804,5.32949 2.233,6.69879 -0.2223,6.4243 -6.8346,11.08123 -11.5707,15.42751 -5.9345,5.446 -13.0877,9.64201 -20.5023,12.7886 -8.7319,3.70561 -18.1498,6.17061 -27.6072,6.90178 -8.1967,0.63371 -24.5622,-2.23293 -24.5622,-2.23293"
       id="path1259"
       inkscape:connector-curvature="0"
       sodipodi:nodetypes="cssssssssc" />
    <path
       style="opacity:1;vector-effect:none;fill:none;fill-opacity:1;stroke:#000000;stroke-width:9.44881916;stroke-linecap:round;stroke-linejoin:miter;stroke-miterlimit:4;stroke-dasharray:none;stroke-dashoffset:0;stroke-opacity:1"
       d="m 1305.3357,638.79619 c 0,0 -4.9799,-8.88321 -8.6122,-12.34428 -6.3814,-6.08067 -14.2487,-10.69266 -22.392,-14.06673 -6.3479,-2.63016 -12.6627,-3.31437 -19.5211,-3.73199 -5.5695,-0.33913 -13.7769,-3.52586 -17.2247,0.86122 -1.3129,1.67054 -1.0026,4.3174 0.5742,5.74153 4.1923,3.7864 12.1823,-1.46728 17.7988,-0.86123 6.8672,0.741 13.4501,3.04302 19.8082,5.74152 7.2601,3.0813 13.6093,8.2511 19.2341,13.77966 2.9755,2.92464 7.464,10.04767 7.464,10.04767"
       id="path1261"
       inkscape:connector-curvature="0"
       sodipodi:nodetypes="cssssssssc" />
    <path
       style="opacity:1;vector-effect:none;fill:none;fill-opacity:1;stroke:#000000;stroke-width:9.44881916;stroke-linecap:round;stroke-linejoin:miter;stroke-miterlimit:4;stroke-dasharray:none;stroke-dashoffset:0;stroke-opacity:1"
       d="m 1058.307,540.23263 c 0,0 8.6854,1.93128 12.9916,3.04491 5.651,1.46141 11.543,2.33679 16.8484,4.77035 6.7464,3.09455 12.3793,8.19234 18.5739,12.28111 4.3621,2.87922 13.0931,8.62722 13.0931,8.62722 l 1.3195,-0.20299 c 0,0 -12.7172,-11.40401 -19.7919,-16.13799 -3.963,-2.65185 -8.17,-5.00011 -12.5856,-6.80028 -7.8536,-3.2018 -24.4607,-7.00328 -24.4607,-7.00328"
       id="path1263"
       inkscape:connector-curvature="0"
       sodipodi:nodetypes="csssccssc" />
    <path
       style="opacity:1;vector-effect:none;fill:none;fill-opacity:1;stroke:#000000;stroke-width:9.44881916;stroke-linecap:round;stroke-linejoin:miter;stroke-miterlimit:4;stroke-dasharray:none;stroke-dashoffset:0;stroke-opacity:1"
       d="m 1197.9825,547.84278 c 0,0 1.9842,-2.91172 2.826,-5.17422 1.1434,-3.07301 -0.275,-6.47646 2.5409,-8.15607 1.4628,-0.8725 2.5011,0.39236 3.3437,1.87259 1.1531,2.02562 0.3476,2.68532 -0.6068,4.81177 -1.341,2.98779 -4.1592,7.07293 -4.1592,7.07293"
       id="path1265"
       inkscape:connector-curvature="0"
       sodipodi:nodetypes="cssssc" />
  </g>
</svg>
