<?xml version="1.0" encoding="UTF-8" standalone="no"?>
<!-- Created with Inkscape (http://www.inkscape.org/) -->

<svg
   xmlns:dc="http://purl.org/dc/elements/1.1/"
   xmlns:cc="http://creativecommons.org/ns#"
   xmlns:rdf="http://www.w3.org/1999/02/22-rdf-syntax-ns#"
   xmlns:svg="http://www.w3.org/2000/svg"
   xmlns="http://www.w3.org/2000/svg"
   xmlns:sodipodi="http://sodipodi.sourceforge.net/DTD/sodipodi-0.dtd"
   xmlns:inkscape="http://www.inkscape.org/namespaces/inkscape"
   version="1.1"
   id="svg815"
   width="420mm"
   height="297mm"
   viewBox="0 0 1587.4016 1122.5197"
   sodipodi:docname="9. Donald - Fill Dark Orange.svg"
   inkscape:version="0.92.4 (5da689c313, 2019-01-14)">
  <metadata
     id="metadata821">
    <rdf:RDF>
      <cc:Work
         rdf:about="">
        <dc:format>image/svg+xml</dc:format>
        <dc:type
           rdf:resource="http://purl.org/dc/dcmitype/StillImage" />
        <dc:title />
      </cc:Work>
    </rdf:RDF>
  </metadata>
  <defs
     id="defs819" />
  <sodipodi:namedview
     pagecolor="#ffffff"
     bordercolor="#666666"
     borderopacity="1"
     objecttolerance="10"
     gridtolerance="10"
     guidetolerance="10"
     inkscape:pageopacity="0"
     inkscape:pageshadow="2"
     inkscape:window-width="1600"
     inkscape:window-height="877"
     id="namedview817"
     showgrid="false"
     units="mm"
     inkscape:zoom="0.87084875"
     inkscape:cx="1120.3823"
     inkscape:cy="577.81516"
     inkscape:window-x="-8"
     inkscape:window-y="-8"
     inkscape:window-maximized="1"
     inkscape:current-layer="layer10" />
  <g
     inkscape:groupmode="layer"
     id="layer2"
     inkscape:label="0. Fake"
     sodipodi:insensitive="true"
     style="display:inline">
    <rect
       style="opacity:1;fill:none;fill-opacity:1;fill-rule:evenodd;stroke:none;stroke-width:5;stroke-miterlimit:4;stroke-dasharray:none;stroke-opacity:1"
       id="rect4303"
       width="1552.5084"
       height="1095.483"
       x="25.262711"
       y="17.850235" />
  </g>
  <g
     style="display:inline"
     inkscape:label="9. Fill Dark Orange"
     id="g5135"
     inkscape:groupmode="layer"
     sodipodi:insensitive="true">
    <path
       style="color:#000000;font-style:normal;font-variant:normal;font-weight:normal;font-stretch:normal;font-size:medium;line-height:normal;font-family:sans-serif;font-variant-ligatures:normal;font-variant-position:normal;font-variant-caps:normal;font-variant-numeric:normal;font-variant-alternates:normal;font-feature-settings:normal;text-indent:0;text-align:start;text-decoration:none;text-decoration-line:none;text-decoration-style:solid;text-decoration-color:#000000;letter-spacing:normal;word-spacing:normal;text-transform:none;writing-mode:lr-tb;direction:ltr;text-orientation:mixed;dominant-baseline:auto;baseline-shift:baseline;text-anchor:start;white-space:normal;shape-padding:0;clip-rule:nonzero;display:inline;overflow:visible;visibility:visible;opacity:1;isolation:auto;mix-blend-mode:normal;color-interpolation:sRGB;color-interpolation-filters:linearRGB;solid-color:#000000;solid-opacity:1;vector-effect:none;fill:#ff9420;fill-opacity:1;fill-rule:nonzero;stroke:none;stroke-width:5;stroke-linecap:butt;stroke-linejoin:miter;stroke-miterlimit:4;stroke-dasharray:none;stroke-dashoffset:0;stroke-opacity:1;color-rendering:auto;image-rendering:auto;shape-rendering:auto;text-rendering:auto;enable-background:accumulate"
       d="m 1093.3496,448.45703 c 5.9465,7.284 11.412,14.94481 16.5645,22.74414 5.9841,9.05841 8.5357,19.55365 14.9472,26.36133 3.3152,3.52007 7.6613,6.33429 12.2305,7.97266 4.5429,1.62891 9.6292,2.28829 14.2949,1.60351 8.6584,-1.27079 17.6872,-4.22616 23.6016,-9.94531 3.8063,-3.68068 5.9559,-9.56794 7.0312,-15.31445 0.5563,-2.97239 0.2731,-8.38582 -0.2422,-12.84766 -0.2464,-2.13463 -0.5273,-4.03838 -0.7558,-5.47461 -5.3854,1.65584 -10.9607,2.80223 -16.5957,3.45117 -0.048,0.50351 -0.09,0.98409 -0.1699,1.61133 -0.234,1.84448 -0.5403,3.9718 -1.3008,5.78711 -1.104,2.63533 -3.1849,5.42871 -5.0274,7.76758 -1.8424,2.33886 -3.4589,4.13476 -3.4589,4.13476 l -2.5782,2.86524 -1.5644,-3.52344 c 0,0 -4.6183,-10.25152 -6.4414,-13.18945 -1.4154,-2.28093 -3.6795,-4.77074 -4.7383,-5.88867 -15.9643,-2.49175 -30.7842,-9.8975 -44.584,-17.41993 -0.3896,-0.21238 -0.8069,-0.46087 -1.2129,-0.69531 z"
       id="path5125"
       inkscape:connector-curvature="0" />
  </g>
  <g
     inkscape:groupmode="layer"
     id="layer10"
     inkscape:label="9. Stroke Dark Orange"
     style="display:inline;opacity:0"
     sodipodi:insensitive="true">
    <path
       style="display:inline;opacity:1;vector-effect:none;fill:none;fill-opacity:1;stroke:#000000;stroke-width:1px;stroke-linecap:butt;stroke-linejoin:miter;stroke-miterlimit:4;stroke-dasharray:none;stroke-dashoffset:0;stroke-opacity:1"
       d="m 392.93725,446.61975 c 0,0 -39.05699,22.38519 -39.04237,41.33898 0.0155,20.03601 21.30299,43.66838 41.33898,43.63559 17.87161,-0.0292 37.75885,-21.19947 36.74576,-39.04237 -0.73901,-13.01566 -16.83057,-25.80449 -29.85593,-25.26271 -9.73527,0.40493 -36.40112,10.38485 -35.59746,20.09534 0.28881,3.48961 15.75148,29.529 24.79269,27.34023 3.49525,-0.84616 18.41952,0.4722 23.11344,-6.15742 3.39546,-4.7957 6.97142,-18.89206 -0.0339,-21.25399 -2.60134,-0.87708 -20.34636,-9.47299 -24.9296,-7.44582 -4.88247,2.15951 -1.699,17.27759 -1.699,17.27759"
       id="path1193-93"
       inkscape:connector-curvature="0"
       sodipodi:nodetypes="csssssssssc" />
    <path
       style="opacity:1;vector-effect:none;fill:none;fill-opacity:1;stroke:#000000;stroke-width:9.44881916;stroke-linecap:round;stroke-linejoin:miter;stroke-miterlimit:4;stroke-dasharray:none;stroke-dashoffset:0;stroke-opacity:1"
       d="m 1096.0512,451.112 c 0,0 11.7537,12.31766 15.7951,17.44797 2.5345,3.21742 5.0504,7.20554 7.058,10.77556 2.9703,5.28178 3.5477,10.94857 7.0088,15.92253 2.6326,3.78332 6.068,7.44309 10.3347,9.18644 5.4101,2.21053 11.7738,1.97146 17.5117,0.86123 6.5158,-1.26075 13.1375,-3.9026 18.0858,-8.32521 4.0012,-3.57616 7.1046,-8.55389 8.3252,-13.77966 1.2888,-5.51755 3.9674,-13.00756 -0.6234,-16.32852 -3.3474,-2.42148 -8.9431,-0.0607 -11.8542,2.87076 -6.4478,9.92908 -4.1009,21.1441 -15.8023,19.43073 -6.5804,-0.83539 -9.3271,-14.87233 -9.3271,-14.87233 0,0 -2.2951,-3.46897 -3.9912,-4.57139 -4.4088,-2.86575 -10.121,-2.88573 -15.072,-4.65714 -7.3565,-2.63205 -21.7016,-8.85728 -21.7016,-8.85728"
       id="path1248"
       inkscape:connector-curvature="0"
       sodipodi:nodetypes="csssssssscccssc" />
    <path
       style="opacity:1;vector-effect:none;fill:none;fill-opacity:1;stroke:#000000;stroke-width:9.44881916;stroke-linecap:round;stroke-linejoin:miter;stroke-miterlimit:4;stroke-dasharray:none;stroke-dashoffset:0;stroke-opacity:1"
       d="m 1120.9305,468.47441 13.1946,30.04305 9.3377,3.45089 -13.6006,-31.26101 8.5257,3.85687 10.9617,27.60713 5.8868,-1.01497 -2.2329,-8.11974 7.3077,-0.81197 1.624,7.51076 5.4808,-3.85688 -2.8419,-9.5407 3.2479,-6.2928 3.6539,12.7886 4.4658,-8.32274 -5.8868,-11.57063 4.8719,-2.84191 3.2479,5.68382"
       id="path1250"
       inkscape:connector-curvature="0" />
  </g>
</svg>
